<svg width="82" height="82" viewBox="0 0 82 82" fill="none" xmlns="http://www.w3.org/2000/svg">
<g filter="url(#filter0_d_113_24)">
<circle cx="40.7191" cy="36.7191" r="36.7191" fill="#4E9F3D"/>
</g>
<path d="M40.2604 44.0827C39.3919 44.0827 38.7027 43.7806 38.1929 43.1764C37.6832 42.5722 37.4849 41.8358 37.5982 40.9673C37.787 39.6079 38.1929 38.3995 38.816 37.3421C39.4391 36.2848 40.3926 35.1897 41.6765 34.0568C43.2625 32.6218 44.4804 31.2907 45.33 30.0635C46.1797 28.8362 46.6045 27.5207 46.6045 26.1169C46.6045 24.4242 46.0353 23.0114 44.897 21.8785C43.7587 20.7456 42.1754 20.1792 40.1471 20.1792C38.7499 20.1792 37.5905 20.4612 36.6688 21.0252C35.7472 21.5892 34.9996 22.289 34.4262 23.1246C34.0108 23.7288 33.4821 24.1442 32.8401 24.3708C32.1982 24.5974 31.5697 24.5848 30.9547 24.333C30.2103 24.0183 29.7531 23.4645 29.5832 22.6715C29.4132 21.8785 29.536 21.161 29.9513 20.5191C31.0087 18.9708 32.3948 17.6963 34.1098 16.6956C35.8247 15.6949 37.8372 15.1946 40.1471 15.1946C43.9303 15.1946 46.8397 16.2459 48.8754 18.3485C50.9111 20.4511 51.929 22.9761 51.929 25.9234C51.929 27.7205 51.5419 29.3554 50.7678 30.8281C49.9936 32.3009 48.7569 33.8491 47.0576 35.4729C45.736 36.7568 44.8108 37.7953 44.2821 38.5883C43.7534 39.3813 43.4136 40.2876 43.2625 41.3072C43.1492 42.1002 42.811 42.761 42.2479 43.2897C41.6848 43.8183 41.0223 44.0827 40.2604 44.0827ZM40.1421 58.2435C39.0504 58.2435 38.1174 57.8548 37.3433 57.0773C36.5692 56.2998 36.1821 55.3652 36.1821 54.2734C36.1821 53.1817 36.5708 52.2488 37.3483 51.4746C38.1258 50.7005 39.0604 50.3134 40.1522 50.3134C41.2439 50.3134 42.1769 50.7022 42.951 51.4797C43.7251 52.2571 44.1122 53.1917 44.1122 54.2835C44.1122 55.3753 43.7234 56.3082 42.9459 57.0823C42.1685 57.8565 41.2339 58.2435 40.1421 58.2435Z" fill="white"/>
<defs>
<filter id="filter0_d_113_24" x="0" y="0" width="81.4381" height="81.4381" filterUnits="userSpaceOnUse" color-interpolation-filters="sRGB">
<feFlood flood-opacity="0" result="BackgroundImageFix"/>
<feColorMatrix in="SourceAlpha" type="matrix" values="0 0 0 0 0 0 0 0 0 0 0 0 0 0 0 0 0 0 127 0" result="hardAlpha"/>
<feOffset dy="4"/>
<feGaussianBlur stdDeviation="2"/>
<feComposite in2="hardAlpha" operator="out"/>
<feColorMatrix type="matrix" values="0 0 0 0 0 0 0 0 0 0 0 0 0 0 0 0 0 0 0.25 0"/>
<feBlend mode="normal" in2="BackgroundImageFix" result="effect1_dropShadow_113_24"/>
<feBlend mode="normal" in="SourceGraphic" in2="effect1_dropShadow_113_24" result="shape"/>
</filter>
</defs>
</svg>
