<?xml version="1.0" encoding="UTF-8" standalone="no"?>
<!-- Created with Inkscape (http://www.inkscape.org/) -->

<svg
   version="1.1"
   id="svg2"
   width="290.79999"
   height="294.73334"
   viewBox="0 0 290.79999 294.73334"
   sodipodi:docname="EN_V_Funded_by_the_EU_WHITE.eps"
   xmlns:inkscape="http://www.inkscape.org/namespaces/inkscape"
   xmlns:sodipodi="http://sodipodi.sourceforge.net/DTD/sodipodi-0.dtd"
   xmlns="http://www.w3.org/2000/svg"
   xmlns:svg="http://www.w3.org/2000/svg">
  <defs
     id="defs6" />
  <sodipodi:namedview
     id="namedview4"
     pagecolor="#ffffff"
     bordercolor="#000000"
     borderopacity="0.25"
     inkscape:showpageshadow="2"
     inkscape:pageopacity="0.0"
     inkscape:pagecheckerboard="0"
     inkscape:deskcolor="#d1d1d1" />
  <g
     id="g8"
     inkscape:groupmode="layer"
     inkscape:label="ink_ext_XXXXXX"
     transform="matrix(1.3333333,0,0,-1.3333333,0,294.73333)">
    <g
       id="g10"
       transform="scale(0.1)">
      <path
         d="m 1517.08,1351.24 -37.16,27.17 -37.11,-27.17 14.11,43.86 -37.73,27.12 46.52,-0.05 14.21,44.48 14.27,-44.43 h 46.52 l -37.74,-27.12 z m -51.04,-193.18 -37.16,27.17 -37.16,-27.17 14.17,43.86 -37.74,27.12 46.47,-0.05 14.26,44.49 14.27,-44.44 h 46.48 l -37.75,-27.12 z m -154.56,569.54 14.12,-43.85 -37.12,27.16 -37.2,-27.16 14.12,43.85 -37.7,27.17 46.52,-0.1 14.22,44.49 14.21,-44.39 h 46.57 z m 13.58,-710.52 -37.15,27.12 -37.16,-27.12 14.11,43.86 -37.7,27.12 46.48,-0.05 14.27,44.44 14.21,-44.39 h 46.52 l -37.74,-27.12 z M 1132.97,966 1095.85,993.121 1058.68,966 l 14.12,43.86 -37.72,27.11 46.53,-0.04 14.21,44.48 14.23,-44.44 h 46.53 l -37.75,-27.11 z m -51.41,840.39 14.24,44.43 14.24,-44.39 h 46.52 l -37.75,-27.11 14.15,-43.86 -37.16,27.12 -37.16,-27.12 14.14,43.86 -37.73,27.11 z m -140.646,-789.31 -37.129,27.12 -37.168,-27.12 14.121,43.86 -37.722,27.12 46.519,-0.05 14.223,44.44 14.234,-44.39 h 46.528 l -37.715,-27.12 z m -51.687,737.64 14.238,44.49 14.234,-44.44 h 46.528 l -37.715,-27.12 14.121,-43.85 -37.141,27.11 -37.156,-27.11 14.109,43.85 -37.715,27.12 z m -103.43,-168.09 14.141,-43.86 -37.157,27.12 -37.16,-27.12 14.141,43.86 -37.727,27.12 46.508,-0.05 14.238,44.48 14.239,-44.43 h 46.503 z m 14.141,-428.57 -37.157,27.17 -37.16,-27.17 14.141,43.86 -37.727,27.12 46.508,-0.05 14.238,44.49 14.239,-44.44 h 46.503 l -37.726,-27.12 z m -149.54,263.62 46.524,-0.1 14.234,44.54 14.242,-44.44 h 46.504 l -37.714,-27.12 14.109,-43.85 -37.141,27.12 -37.156,-27.12 14.141,43.85 z m 764.222,192.55 14.26,44.48 14.27,-44.43 h 46.48 l -37.75,-27.07 14.16,-43.86 -37.16,27.12 -37.16,-27.12 14.17,43.86 -37.74,27.07 z M 215.633,1991.27 V 817.211 H 1976.69 V 1991.27 H 215.633"
         style="fill:#ffffff;fill-opacity:1;fill-rule:nonzero;stroke:none"
         id="path12" />
      <path
         d="m 625.492,482.852 v 150.32 H 728.543 V 607.738 H 655.848 V 572.16 h 62.754 v -25.43 h -62.754 v -63.878 h -30.356"
         style="fill:#ffffff;fill-opacity:1;fill-rule:nonzero;stroke:none"
         id="path14" />
      <path
         d="m 825.035,482.852 v 16.296 c -3.965,-5.808 -9.18,-10.386 -15.633,-13.738 -6.464,-3.351 -13.285,-5.019 -20.461,-5.019 -7.312,0 -13.875,1.597 -19.687,4.82 -5.809,3.211 -10.02,7.719 -12.617,13.527 -2.598,5.813 -3.899,13.84 -3.899,24.102 v 68.898 h 28.821 v -50.039 c 0,-15.308 0.527,-24.687 1.593,-28.14 1.051,-3.457 2.989,-6.188 5.789,-8.2 2.801,-2.027 6.36,-3.027 10.664,-3.027 4.922,0 9.329,1.348 13.223,4.047 3.899,2.703 6.563,6.051 7.996,10.051 1.438,3.992 2.16,13.789 2.16,29.379 v 45.929 h 28.809 V 482.852 h -26.758"
         style="fill:#ffffff;fill-opacity:1;fill-rule:nonzero;stroke:none"
         id="path16" />
      <path
         d="m 980.691,482.852 h -28.82 v 55.57 c 0,11.758 -0.613,19.359 -1.844,22.816 -1.23,3.453 -3.234,6.133 -5.996,8.051 -2.773,1.91 -6.105,2.871 -10,2.871 -4.992,0 -9.465,-1.371 -13.429,-4.101 -3.965,-2.739 -6.692,-6.36 -8.153,-10.868 -1.476,-4.511 -2.211,-12.851 -2.211,-25.019 v -49.32 h -28.804 v 108.886 h 26.757 V 575.75 c 9.5,12.301 21.465,18.449 35.887,18.449 6.36,0 12.168,-1.14 17.434,-3.429 5.261,-2.29 9.246,-5.211 11.941,-8.77 2.703,-3.551 4.578,-7.59 5.645,-12.102 1.054,-4.507 1.593,-10.968 1.593,-19.378 v -67.668"
         style="fill:#ffffff;fill-opacity:1;fill-rule:nonzero;stroke:none"
         id="path18" />
      <path
         d="m 1032.88,539.648 c 0,-11.617 1.61,-20.027 4.82,-25.218 4.65,-7.52 11.14,-11.282 19.48,-11.282 6.63,0 12.27,2.821 16.92,8.461 4.65,5.641 6.97,14.063 6.97,25.27 0,12.512 -2.26,21.519 -6.77,27.019 -4.51,5.5 -10.28,8.262 -17.32,8.262 -6.84,0 -12.56,-2.719 -17.18,-8.148 -4.61,-5.442 -6.92,-13.563 -6.92,-24.364 z m 76.9,-56.796 h -26.76 v 15.988 c -4.44,-6.219 -9.68,-10.852 -15.74,-13.891 -6.04,-3.039 -12.15,-4.558 -18.3,-4.558 -12.51,0 -23.22,5.031 -32.15,15.121 -8.91,10.078 -13.38,24.148 -13.38,42.199 0,18.449 4.34,32.48 13.02,42.09 8.68,9.597 19.66,14.398 32.92,14.398 12.17,0 22.7,-5.051 31.58,-15.168 v 54.141 h 28.81 v -150.32"
         style="fill:#ffffff;fill-opacity:1;fill-rule:nonzero;stroke:none"
         id="path20" />
      <path
         d="m 1202.89,546.629 c -0.21,8.34 -2.36,14.672 -6.46,19.019 -4.1,4.34 -9.09,6.512 -14.97,6.512 -6.29,0 -11.48,-2.289 -15.58,-6.871 -4.11,-4.578 -6.13,-10.801 -6.06,-18.66 z m -1.64,-29.129 28.71,-4.809 c -3.69,-10.531 -9.52,-18.55 -17.48,-24.05 -7.97,-5.512 -17.93,-8.25 -29.9,-8.25 -18.93,0 -32.94,6.179 -42.04,18.558 -7.17,9.91 -10.76,22.422 -10.76,37.52 0,18.051 4.72,32.179 14.15,42.402 9.44,10.219 21.36,15.328 35.78,15.328 16.2,0 28.99,-5.347 38.35,-16.039 9.37,-10.699 13.85,-27.09 13.44,-49.172 h -72.19 c 0.21,-8.547 2.53,-15.199 6.98,-19.937 4.44,-4.762 9.98,-7.129 16.61,-7.129 4.51,0 8.3,1.226 11.37,3.687 3.08,2.461 5.4,6.43 6.98,11.891"
         style="fill:#ffffff;fill-opacity:1;fill-rule:nonzero;stroke:none"
         id="path22" />
      <path
         d="m 1277.95,539.648 c 0,-11.617 1.61,-20.027 4.82,-25.218 4.65,-7.52 11.14,-11.282 19.48,-11.282 6.63,0 12.27,2.821 16.92,8.461 4.64,5.641 6.97,14.063 6.97,25.27 0,12.512 -2.25,21.519 -6.77,27.019 -4.51,5.5 -10.28,8.262 -17.32,8.262 -6.84,0 -12.56,-2.719 -17.18,-8.148 -4.61,-5.442 -6.92,-13.563 -6.92,-24.364 z m 76.9,-56.796 h -26.76 v 15.988 c -4.45,-6.219 -9.69,-10.852 -15.74,-13.891 -6.05,-3.039 -12.15,-4.558 -18.3,-4.558 -12.51,0 -23.22,5.031 -32.15,15.121 -8.92,10.078 -13.38,24.148 -13.38,42.199 0,18.449 4.34,32.48 13.02,42.09 8.68,9.597 19.66,14.398 32.92,14.398 12.17,0 22.69,-5.051 31.58,-15.168 v 54.141 h 28.81 v -150.32"
         style="fill:#ffffff;fill-opacity:1;fill-rule:nonzero;stroke:none"
         id="path24" />
      <path
         d="m 1468.98,539.648 c 0,-11.277 1.78,-19.617 5.33,-25.019 4.99,-7.649 11.62,-11.481 19.9,-11.481 6.35,0 11.77,2.711 16.25,8.153 4.48,5.429 6.71,14 6.71,25.687 0,12.442 -2.25,21.41 -6.76,26.91 -4.52,5.5 -10.3,8.262 -17.34,8.262 -6.9,0 -12.64,-2.691 -17.22,-8.051 -4.58,-5.371 -6.87,-13.519 -6.87,-24.461 z m -28.6,-56.796 v 150.32 h 28.81 v -54.141 c 8.88,10.117 19.41,15.168 31.58,15.168 13.26,0 24.23,-4.801 32.91,-14.398 8.68,-9.61 13.03,-23.403 13.03,-41.379 0,-18.59 -4.43,-32.91 -13.29,-42.961 -8.84,-10.051 -19.6,-15.07 -32.24,-15.07 -6.22,0 -12.36,1.55 -18.41,4.66 -6.05,3.109 -11.26,7.711 -15.63,13.789 v -15.988 h -26.76"
         style="fill:#ffffff;fill-opacity:1;fill-rule:nonzero;stroke:none"
         id="path26" />
      <path
         d="m 1556.24,591.738 h 30.65 l 26.06,-77.308 25.43,77.308 h 29.83 l -38.45,-104.789 -6.87,-18.969 c -2.53,-6.359 -4.94,-11.21 -7.23,-14.558 -2.29,-3.352 -4.92,-6.07 -7.9,-8.152 -2.97,-2.09 -6.63,-3.711 -10.97,-4.872 -4.34,-1.168 -9.24,-1.75 -14.71,-1.75 -5.54,0 -10.97,0.582 -16.3,1.75 l -2.57,22.551 c 4.51,-0.879 8.57,-1.328 12.2,-1.328 6.7,0 11.66,1.969 14.87,5.891 3.21,3.937 5.67,8.949 7.38,15.027 l -41.42,109.199"
         style="fill:#ffffff;fill-opacity:1;fill-rule:nonzero;stroke:none"
         id="path28" />
      <path
         d="M 179.137,339.738 V 316.77 h -19.688 v -43.879 c 0,-8.891 0.188,-14.071 0.567,-15.539 0.371,-1.473 1.23,-2.68 2.558,-3.641 1.336,-0.961 2.957,-1.43 4.875,-1.43 2.664,0 6.531,0.918 11.59,2.758 l 2.461,-22.348 c -6.699,-2.871 -14.285,-4.312 -22.762,-4.312 -5.199,0 -9.883,0.871 -14.054,2.621 -4.168,1.738 -7.227,4 -9.18,6.77 -1.941,2.761 -3.289,6.511 -4.043,11.218 -0.613,3.352 -0.93,10.121 -0.93,20.313 v 47.469 h -13.218 v 22.968 h 13.218 v 21.641 l 28.918,16.812 v -38.453 h 19.688"
         style="fill:#ffffff;fill-opacity:1;fill-rule:nonzero;stroke:none"
         id="path30" />
      <path
         d="m 227.848,381.172 v -55.274 c 9.297,10.872 20.398,16.301 33.32,16.301 6.633,0 12.617,-1.23 17.949,-3.687 5.332,-2.461 9.348,-5.602 12.039,-9.43 2.707,-3.832 4.555,-8.07 5.539,-12.723 0.996,-4.648 1.496,-11.859 1.496,-21.629 v -63.89 h -28.82 v 57.531 c 0,11.418 -0.547,18.66 -1.641,21.738 -1.093,3.071 -3.027,5.512 -5.789,7.332 -2.777,1.809 -6.242,2.719 -10.41,2.719 -4.789,0 -9.054,-1.172 -12.812,-3.488 -3.762,-2.32 -6.516,-5.832 -8.266,-10.512 -1.734,-4.691 -2.605,-11.601 -2.605,-20.762 V 230.84 h -28.817 v 150.332 h 28.817"
         style="fill:#ffffff;fill-opacity:1;fill-rule:nonzero;stroke:none"
         id="path32" />
      <path
         d="m 392.113,294.621 c -0.203,8.34 -2.359,14.68 -6.461,19.027 -4.101,4.332 -9.093,6.512 -14.972,6.512 -6.289,0 -11.485,-2.289 -15.586,-6.871 -4.102,-4.578 -6.114,-10.801 -6.043,-18.668 z m -1.636,-29.121 28.711,-4.82 c -3.696,-10.52 -9.524,-18.539 -17.485,-24.039 -7.965,-5.512 -17.926,-8.262 -29.89,-8.262 -18.934,0 -32.95,6.191 -42.04,18.562 -7.179,9.918 -10.773,22.43 -10.773,37.528 0,18.051 4.719,32.179 14.152,42.402 9.434,10.219 21.368,15.328 35.789,15.328 16.204,0 28.985,-5.347 38.348,-16.039 9.367,-10.711 13.84,-27.09 13.43,-49.172 h -72.188 c 0.207,-8.547 2.532,-15.199 6.973,-19.937 4.445,-4.762 9.98,-7.129 16.609,-7.129 4.516,0 8.313,1.226 11.391,3.687 3.074,2.461 5.398,6.422 6.973,11.891"
         style="fill:#ffffff;fill-opacity:1;fill-rule:nonzero;stroke:none"
         id="path34" />
      <path
         d="M 502.75,230.84 V 381.172 H 614.215 V 355.738 H 533.102 V 322.41 h 75.468 v -25.328 h -75.468 v -40.91 h 83.984 V 230.84 H 502.75"
         style="fill:#ffffff;fill-opacity:1;fill-rule:nonzero;stroke:none"
         id="path36" />
      <path
         d="m 714.293,230.84 v 16.308 c -3.965,-5.808 -9.18,-10.386 -15.637,-13.738 -6.461,-3.351 -13.277,-5.031 -20.457,-5.031 -7.312,0 -13.875,1.609 -19.687,4.82 -5.813,3.223 -10.02,7.731 -12.617,13.539 -2.598,5.813 -3.899,13.84 -3.899,24.094 v 68.906 h 28.82 v -50.039 c 0,-15.308 0.528,-24.699 1.59,-28.14 1.059,-3.457 2.992,-6.188 5.793,-8.207 2.805,-2.024 6.36,-3.02 10.664,-3.02 4.922,0 9.328,1.34 13.223,4.047 3.898,2.703 6.562,6.043 8,10.051 1.434,3.992 2.156,13.789 2.156,29.371 v 45.937 h 28.809 V 230.84 h -26.758"
         style="fill:#ffffff;fill-opacity:1;fill-rule:nonzero;stroke:none"
         id="path38" />
      <path
         d="m 798.473,230.84 h -28.809 v 108.898 h 26.758 v -15.476 c 4.582,7.308 8.699,12.129 12.355,14.457 3.661,2.32 7.813,3.48 12.461,3.48 6.563,0 12.891,-1.808 18.973,-5.429 l -8.926,-25.122 c -4.851,3.141 -9.363,4.711 -13.535,4.711 -4.031,0 -7.449,-1.109 -10.254,-3.328 -2.801,-2.222 -5.008,-6.242 -6.609,-12.051 -1.614,-5.808 -2.414,-17.98 -2.414,-36.5 v -33.64"
         style="fill:#ffffff;fill-opacity:1;fill-rule:nonzero;stroke:none"
         id="path40" />
      <path
         d="m 875.484,285.289 c 0,-10.801 2.559,-19.07 7.688,-24.809 5.125,-5.742 11.453,-8.609 18.973,-8.609 7.519,0 13.82,2.867 18.918,8.609 5.085,5.739 7.636,14.079 7.636,25.02 0,10.66 -2.551,18.871 -7.636,24.609 -5.098,5.743 -11.399,8.61 -18.918,8.61 -7.52,0 -13.848,-2.867 -18.973,-8.61 -5.129,-5.738 -7.688,-14.019 -7.688,-24.82 z m -29.531,1.539 c 0,9.57 2.356,18.832 7.07,27.793 4.715,8.949 11.399,15.789 20.051,20.508 8.641,4.711 18.297,7.07 28.961,7.07 16.477,0 29.985,-5.347 40.512,-16.039 10.527,-10.711 15.789,-24.219 15.789,-40.558 0,-16.473 -5.32,-30.133 -15.945,-40.973 -10.637,-10.828 -24.016,-16.25 -40.149,-16.25 -9.98,0 -19.504,2.262 -28.554,6.769 -9.063,4.512 -15.95,11.122 -20.665,19.852 -4.714,8.711 -7.07,19.32 -7.07,31.828"
         style="fill:#ffffff;fill-opacity:1;fill-rule:nonzero;stroke:none"
         id="path42" />
      <path
         d="m 1008.58,287.141 c 0,-12.243 2.42,-21.282 7.28,-27.129 4.85,-5.84 10.77,-8.762 17.74,-8.762 6.7,0 12.27,2.68 16.71,8.051 4.44,5.359 6.67,14.168 6.67,26.398 0,11.422 -2.3,19.903 -6.88,25.43 -4.58,5.543 -10.25,8.312 -17.02,8.312 -7.04,0 -12.88,-2.722 -17.53,-8.16 -4.65,-5.429 -6.97,-13.48 -6.97,-24.14 z m -28.506,52.597 h 26.866 V 323.75 c 3.49,5.461 8.2,9.91 14.15,13.332 5.95,3.406 12.54,5.117 19.79,5.117 12.64,0 23.37,-4.949 32.19,-14.867 8.82,-9.91 13.23,-23.723 13.23,-41.422 0,-18.191 -4.44,-32.32 -13.33,-42.398 -8.88,-10.09 -19.65,-15.133 -32.3,-15.133 -6.02,0 -11.46,1.203 -16.36,3.59 -4.88,2.402 -10.03,6.5 -15.43,12.312 v -54.859 h -28.806 v 150.316"
         style="fill:#ffffff;fill-opacity:1;fill-rule:nonzero;stroke:none"
         id="path44" />
      <path
         d="m 1173.87,294.621 c -0.2,8.34 -2.36,14.68 -6.46,19.027 -4.1,4.332 -9.09,6.512 -14.97,6.512 -6.29,0 -11.49,-2.289 -15.59,-6.871 -4.1,-4.578 -6.11,-10.801 -6.04,-18.668 z m -1.64,-29.121 28.71,-4.82 c -3.69,-10.52 -9.52,-18.539 -17.48,-24.039 -7.97,-5.512 -17.93,-8.262 -29.89,-8.262 -18.93,0 -32.95,6.191 -42.04,18.562 -7.18,9.918 -10.77,22.43 -10.77,37.528 0,18.051 4.71,32.179 14.15,42.402 9.43,10.219 21.37,15.328 35.79,15.328 16.2,0 28.98,-5.347 38.35,-16.039 9.36,-10.711 13.84,-27.09 13.43,-49.172 h -72.19 c 0.2,-8.547 2.53,-15.199 6.97,-19.937 4.45,-4.762 9.98,-7.129 16.61,-7.129 4.52,0 8.31,1.226 11.39,3.687 3.08,2.461 5.4,6.422 6.97,11.891"
         style="fill:#ffffff;fill-opacity:1;fill-rule:nonzero;stroke:none"
         id="path46" />
      <path
         d="m 1286.05,283.141 c -3.69,-1.231 -9.54,-2.7 -17.54,-4.411 -8,-1.71 -13.22,-3.378 -15.68,-5.019 -3.76,-2.672 -5.65,-6.051 -5.65,-10.16 0,-4.031 1.51,-7.512 4.52,-10.449 3,-2.942 6.83,-4.411 11.48,-4.411 5.2,0 10.16,1.707 14.87,5.118 3.49,2.601 5.77,5.781 6.87,9.543 0.75,2.457 1.13,7.136 1.13,14.046 z m -38.55,23.379 -26.16,4.718 c 2.94,10.524 8,18.321 15.18,23.371 7.18,5.063 17.84,7.59 31.99,7.59 12.85,0 22.42,-1.519 28.71,-4.558 6.29,-3.051 10.72,-6.911 13.28,-11.59 2.56,-4.68 3.84,-13.281 3.84,-25.789 l -0.3,-33.633 c 0,-9.57 0.46,-16.629 1.39,-21.18 0.91,-4.539 2.64,-9.41 5.17,-14.609 h -28.5 c -0.76,1.922 -1.67,4.762 -2.77,8.519 -0.48,1.7 -0.82,2.832 -1.02,3.379 -4.92,-4.789 -10.19,-8.367 -15.79,-10.769 -5.61,-2.387 -11.6,-3.59 -17.95,-3.59 -11.21,0 -20.05,3.051 -26.51,9.133 -6.46,6.078 -9.68,13.769 -9.68,23.066 0,6.152 1.46,11.641 4.4,16.461 2.94,4.82 7.06,8.512 12.35,11.07 5.31,2.571 12.94,4.813 22.92,6.723 13.47,2.527 22.81,4.887 28,7.066 v 2.883 c 0,5.528 -1.37,9.481 -4.1,11.84 -2.73,2.359 -7.9,3.539 -15.49,3.539 -5.13,0 -9.12,-1.012 -11.99,-3.031 -2.87,-2.02 -5.2,-5.547 -6.97,-10.609"
         style="fill:#ffffff;fill-opacity:1;fill-rule:nonzero;stroke:none"
         id="path48" />
      <path
         d="m 1441.8,230.84 h -28.81 v 55.582 c 0,11.758 -0.61,19.359 -1.84,22.808 -1.23,3.461 -3.23,6.141 -6,8.059 -2.77,1.91 -6.1,2.871 -10,2.871 -4.99,0 -9.47,-1.371 -13.43,-4.109 -3.97,-2.731 -6.68,-6.352 -8.15,-10.86 -1.47,-4.519 -2.21,-12.859 -2.21,-25.019 V 230.84 h -28.81 v 108.898 h 26.76 V 323.75 c 9.5,12.301 21.47,18.449 35.89,18.449 6.36,0 12.17,-1.148 17.43,-3.437 5.27,-2.293 9.25,-5.211 11.95,-8.762 2.7,-3.551 4.58,-7.59 5.64,-12.102 1.06,-4.507 1.58,-10.968 1.58,-19.378 v -67.68"
         style="fill:#ffffff;fill-opacity:1;fill-rule:nonzero;stroke:none"
         id="path50" />
      <path
         d="m 1529.38,381.172 h 30.35 V 299.75 c 0,-12.922 0.37,-21.289 1.13,-25.121 1.29,-6.149 4.39,-11.09 9.27,-14.82 4.9,-3.727 11.58,-5.59 20.05,-5.59 8.62,0 15.11,1.761 19.48,5.293 4.38,3.508 7.01,7.84 7.9,12.968 0.88,5.122 1.33,13.629 1.33,25.532 v 83.16 h 30.35 v -78.961 c 0,-18.039 -0.82,-30.789 -2.46,-38.25 -1.64,-7.449 -4.66,-13.742 -9.07,-18.859 -4.41,-5.133 -10.3,-9.223 -17.68,-12.25 -7.39,-3.051 -17.04,-4.571 -28.93,-4.571 -14.36,0 -25.23,1.66 -32.66,4.981 -7.41,3.308 -13.28,7.609 -17.57,12.918 -4.32,5.289 -7.15,10.851 -8.52,16.66 -1.98,8.609 -2.97,21.332 -2.97,38.14 v 80.192"
         style="fill:#ffffff;fill-opacity:1;fill-rule:nonzero;stroke:none"
         id="path52" />
      <path
         d="m 1780.07,230.84 h -28.8 v 55.582 c 0,11.758 -0.62,19.359 -1.85,22.808 -1.23,3.461 -3.23,6.141 -6,8.059 -2.77,1.91 -6.1,2.871 -10,2.871 -4.99,0 -9.47,-1.371 -13.42,-4.109 -3.98,-2.731 -6.69,-6.352 -8.16,-10.86 -1.47,-4.519 -2.2,-12.859 -2.2,-25.019 V 230.84 h -28.82 v 108.898 h 26.76 V 323.75 c 9.51,12.301 21.47,18.449 35.89,18.449 6.36,0 12.17,-1.148 17.43,-3.437 5.27,-2.293 9.25,-5.211 11.95,-8.762 2.7,-3.551 4.58,-7.59 5.64,-12.102 1.06,-4.507 1.58,-10.968 1.58,-19.378 v -67.68"
         style="fill:#ffffff;fill-opacity:1;fill-rule:nonzero;stroke:none"
         id="path54" />
      <path
         d="m 1809.3,230.84 v 108.898 h 28.81 V 230.84 Z m 0,123.672 v 26.66 h 28.81 v -26.66 h -28.81"
         style="fill:#ffffff;fill-opacity:1;fill-rule:nonzero;stroke:none"
         id="path56" />
      <path
         d="m 1890.51,285.289 c 0,-10.801 2.57,-19.07 7.69,-24.809 5.14,-5.742 11.45,-8.609 18.97,-8.609 7.52,0 13.83,2.867 18.92,8.609 5.1,5.739 7.64,14.079 7.64,25.02 0,10.66 -2.54,18.871 -7.64,24.609 -5.09,5.743 -11.4,8.61 -18.92,8.61 -7.52,0 -13.83,-2.867 -18.97,-8.61 -5.12,-5.738 -7.69,-14.019 -7.69,-24.82 z m -29.53,1.539 c 0,9.57 2.36,18.832 7.08,27.793 4.71,8.949 11.4,15.789 20.04,20.508 8.65,4.711 18.3,7.07 28.97,7.07 16.47,0 29.98,-5.347 40.5,-16.039 10.53,-10.711 15.8,-24.219 15.8,-40.558 0,-16.473 -5.32,-30.133 -15.95,-40.973 -10.63,-10.828 -24.02,-16.25 -40.14,-16.25 -9.99,0 -19.5,2.262 -28.56,6.769 -9.06,4.512 -15.95,11.122 -20.66,19.852 -4.72,8.711 -7.08,19.32 -7.08,31.828"
         style="fill:#ffffff;fill-opacity:1;fill-rule:nonzero;stroke:none"
         id="path58" />
      <path
         d="m 2094.97,230.84 h -28.81 v 55.582 c 0,11.758 -0.62,19.359 -1.85,22.808 -1.23,3.461 -3.23,6.141 -5.99,8.059 -2.78,1.91 -6.11,2.871 -10,2.871 -4.99,0 -9.48,-1.371 -13.43,-4.109 -3.98,-2.731 -6.69,-6.352 -8.16,-10.86 -1.47,-4.519 -2.2,-12.859 -2.2,-25.019 V 230.84 h -28.82 v 108.898 h 26.77 V 323.75 c 9.5,12.301 21.46,18.449 35.89,18.449 6.35,0 12.16,-1.148 17.43,-3.437 5.26,-2.293 9.25,-5.211 11.94,-8.762 2.71,-3.551 4.58,-7.59 5.65,-12.102 1.05,-4.507 1.58,-10.968 1.58,-19.378 v -67.68"
         style="fill:#ffffff;fill-opacity:1;fill-rule:nonzero;stroke:none"
         id="path60" />
    </g>
  </g>
</svg>
