<?xml version="1.0" encoding="UTF-8" standalone="no"?>
<!-- Created with Inkscape (http://www.inkscape.org/) -->

<svg
   version="1.1"
   id="svg2"
   width="290.79999"
   height="294.73334"
   viewBox="0 0 290.79999 294.73334"
   sodipodi:docname="LT_Finansuoja_Europos_Sajunga_WHITE.eps"
   xmlns:inkscape="http://www.inkscape.org/namespaces/inkscape"
   xmlns:sodipodi="http://sodipodi.sourceforge.net/DTD/sodipodi-0.dtd"
   xmlns="http://www.w3.org/2000/svg"
   xmlns:svg="http://www.w3.org/2000/svg">
  <defs
     id="defs6" />
  <sodipodi:namedview
     id="namedview4"
     pagecolor="#ffffff"
     bordercolor="#000000"
     borderopacity="0.25"
     inkscape:showpageshadow="2"
     inkscape:pageopacity="0.0"
     inkscape:pagecheckerboard="0"
     inkscape:deskcolor="#d1d1d1" />
  <g
     id="g8"
     inkscape:groupmode="layer"
     inkscape:label="ink_ext_XXXXXX"
     transform="matrix(1.3333333,0,0,-1.3333333,0,294.73333)">
    <g
       id="g10"
       transform="scale(0.1)">
      <path
         d="m 1517.08,1351.24 -37.16,27.17 -37.11,-27.17 14.11,43.86 -37.74,27.11 46.52,-0.04 14.22,44.48 14.26,-44.44 h 46.52 l -37.74,-27.11 z m -51.04,-193.18 -37.16,27.17 -37.16,-27.17 14.17,43.86 -37.75,27.12 46.48,-0.05 14.26,44.49 14.26,-44.44 h 46.48 l -37.74,-27.12 z m -154.56,569.54 14.12,-43.85 -37.11,27.16 -37.21,-27.16 14.11,43.85 -37.69,27.17 46.52,-0.1 14.22,44.49 14.21,-44.39 h 46.57 z m 13.58,-710.52 -37.16,27.12 -37.16,-27.12 14.12,43.86 -37.69,27.12 46.47,-0.05 14.26,44.44 14.22,-44.39 h 46.52 l -37.74,-27.12 z M 1132.98,966 1095.84,993.121 1058.68,966 l 14.12,43.86 -37.72,27.12 46.52,-0.05 14.22,44.48 14.24,-44.43 h 46.52 l -37.74,-27.12 z m -51.42,840.39 14.23,44.43 14.24,-44.38 h 46.53 l -37.75,-27.12 14.14,-43.86 -37.16,27.12 -37.16,-27.12 14.14,43.86 -37.71,27.12 z m -140.642,-789.31 -37.137,27.12 -37.164,-27.12 14.117,43.86 -37.714,27.12 46.523,-0.05 14.215,44.44 14.234,-44.39 h 46.528 l -37.719,-27.12 z m -51.691,737.64 14.238,44.49 14.238,-44.44 h 46.524 l -37.719,-27.12 14.117,-43.85 -37.137,27.11 -37.16,-27.11 14.117,43.85 -37.718,27.12 z m -103.43,-168.09 14.141,-43.86 -37.161,27.12 -37.16,-27.12 14.141,43.86 -37.719,27.11 46.5,-0.04 14.238,44.48 14.239,-44.44 h 46.5 z m 14.141,-428.57 -37.161,27.17 -37.16,-27.17 14.141,43.86 -37.719,27.12 46.5,-0.05 14.238,44.49 14.239,-44.44 h 46.5 l -37.719,-27.12 z m -149.54,263.62 46.524,-0.09 14.238,44.53 14.238,-44.44 h 46.5 l -37.718,-27.12 14.117,-43.85 -37.137,27.11 -37.16,-27.11 14.141,43.85 z m 764.222,192.55 14.26,44.48 14.26,-44.43 h 46.48 l -37.74,-27.07 14.16,-43.86 -37.16,27.12 -37.16,-27.12 14.17,43.86 -37.75,27.07 z M 215.629,1991.27 V 817.211 H 1976.69 V 1991.27 H 215.629"
         style="fill:#ffffff;fill-opacity:1;fill-rule:nonzero;stroke:none"
         id="path12" />
      <g
         id="g14"
         transform="scale(10)">
        <text
           xml:space="preserve"
           transform="matrix(1,0,0,-1,54.9082,48.1969)"
           style="font-variant:normal;font-weight:bold;font-size:21px;font-family:Arial;-inkscape-font-specification:Arial-BoldMT;writing-mode:lr-tb;fill:#ffffff;fill-opacity:1;fill-rule:nonzero;stroke:none"
           id="text20"><tspan
             x="0 12.831 18.669001 31.5 43.168358 55.996452 67.676155 80.503242 93.330338 99.165298"
             y="0"
             sodipodi:role="line"
             id="tspan16">Finansuoja</tspan><tspan
             x="-30.9203 -16.9133 -4.0823002 4.0867 16.9177 29.748699 42.568764 54.248463 60.082443 74.090248 85.768951 91.603912 104.431 117.25809 130.0862"
             y="25.200001"
             sodipodi:role="line"
             id="tspan18">Europos Sąjunga</tspan></text>
      </g>
    </g>
  </g>
</svg>
