<?xml version="1.0" encoding="UTF-8" standalone="no"?>
<!-- Created with Inkscape (http://www.inkscape.org/) -->

<svg
   version="1.1"
   id="svg2"
   width="290.79999"
   height="294.73334"
   viewBox="0 0 290.79999 294.73334"
   sodipodi:docname="SL_Financira_Evropska_unija_WHITE.eps"
   xmlns:inkscape="http://www.inkscape.org/namespaces/inkscape"
   xmlns:sodipodi="http://sodipodi.sourceforge.net/DTD/sodipodi-0.dtd"
   xmlns="http://www.w3.org/2000/svg"
   xmlns:svg="http://www.w3.org/2000/svg">
  <defs
     id="defs6" />
  <sodipodi:namedview
     id="namedview4"
     pagecolor="#ffffff"
     bordercolor="#000000"
     borderopacity="0.25"
     inkscape:showpageshadow="2"
     inkscape:pageopacity="0.0"
     inkscape:pagecheckerboard="0"
     inkscape:deskcolor="#d1d1d1" />
  <g
     id="g8"
     inkscape:groupmode="layer"
     inkscape:label="ink_ext_XXXXXX"
     transform="matrix(1.3333333,0,0,-1.3333333,0,294.73333)">
    <g
       id="g10"
       transform="scale(0.1)">
      <path
         d="m 1517.08,1351.24 -37.16,27.17 -37.11,-27.17 14.11,43.86 -37.74,27.12 46.53,-0.05 14.21,44.48 14.26,-44.43 h 46.53 l -37.75,-27.12 z m -51.04,-193.18 -37.16,27.17 -37.16,-27.17 14.16,43.86 -37.73,27.12 46.46,-0.05 14.27,44.49 14.27,-44.44 h 46.47 l -37.74,-27.12 z m -154.56,569.54 14.12,-43.85 -37.12,27.16 -37.21,-27.16 14.13,43.85 -37.7,27.17 46.52,-0.1 14.22,44.49 14.21,-44.39 h 46.57 z m 13.58,-710.52 -37.15,27.12 -37.16,-27.12 14.11,43.86 -37.7,27.12 46.48,-0.05 14.27,44.44 14.2,-44.39 h 46.53 l -37.74,-27.12 z M 1132.97,966 1095.84,993.121 1058.68,966 l 14.12,43.86 -37.72,27.11 46.53,-0.04 14.21,44.48 14.23,-44.44 h 46.53 l -37.75,-27.11 z m -51.41,840.39 14.24,44.43 14.23,-44.39 h 46.53 l -37.75,-27.11 14.14,-43.86 -37.15,27.12 -37.16,-27.12 14.14,43.86 -37.73,27.11 z m -140.646,-789.31 -37.129,27.12 -37.168,-27.12 14.121,43.86 -37.726,27.12 46.523,-0.05 14.219,44.44 14.238,-44.39 h 46.524 l -37.715,-27.12 z m -51.691,737.64 14.238,44.49 14.238,-44.44 h 46.524 l -37.715,-27.12 14.121,-43.85 -37.137,27.11 -37.16,-27.11 14.113,43.85 -37.715,27.12 z m -103.426,-168.09 14.141,-43.86 -37.161,27.12 -37.156,-27.12 14.141,43.86 -37.727,27.12 46.504,-0.05 14.238,44.48 14.239,-44.43 h 46.504 z m 14.141,-428.57 -37.161,27.17 -37.156,-27.17 14.141,43.86 -37.727,27.12 46.504,-0.05 14.238,44.49 14.239,-44.44 h 46.504 l -37.723,-27.12 z m -149.543,263.62 46.523,-0.1 14.238,44.54 14.239,-44.44 h 46.503 l -37.714,-27.12 14.113,-43.85 -37.141,27.12 -37.156,-27.12 14.141,43.85 z m 764.215,192.55 14.27,44.48 14.27,-44.43 h 46.47 l -37.74,-27.07 14.16,-43.86 -37.16,27.12 -37.16,-27.12 14.16,43.86 -37.73,27.07 z M 215.629,1991.27 V 817.211 H 1976.68 V 1991.27 H 215.629"
         style="fill:#ffffff;fill-opacity:1;fill-rule:nonzero;stroke:none"
         id="path12" />
      <path
         d="m 622.816,471.969 v 150.32 h 103.047 v -25.418 h -72.695 v -35.582 h 62.754 v -25.43 h -62.754 v -63.89 h -30.352"
         style="fill:#ffffff;fill-opacity:1;fill-rule:nonzero;stroke:none"
         id="path14" />
      <path
         d="m 750.68,471.969 v 108.902 h 28.816 V 471.969 Z m 0,123.66 v 26.66 h 28.816 v -26.66 H 750.68"
         style="fill:#ffffff;fill-opacity:1;fill-rule:nonzero;stroke:none"
         id="path16" />
      <path
         d="m 908.082,471.969 h -28.809 v 55.582 c 0,11.758 -0.625,19.359 -1.855,22.808 -1.23,3.461 -3.223,6.129 -5.996,8.063 -2.774,1.898 -6.094,2.867 -10,2.867 -4.981,0 -9.473,-1.379 -13.418,-4.098 -3.984,-2.75 -6.699,-6.371 -8.164,-10.882 -1.465,-4.508 -2.207,-12.848 -2.207,-25.02 v -49.32 h -28.809 v 108.902 h 26.758 v -16 c 9.512,12.309 21.465,18.461 35.898,18.461 6.348,0 12.168,-1.141 17.422,-3.441 5.274,-2.282 9.258,-5.211 11.953,-8.762 2.696,-3.559 4.571,-7.59 5.645,-12.109 1.055,-4.508 1.582,-10.961 1.582,-19.372 v -67.679"
         style="fill:#ffffff;fill-opacity:1;fill-rule:nonzero;stroke:none"
         id="path18" />
      <path
         d="m 997.387,524.27 c -3.692,-1.231 -9.532,-2.711 -17.528,-4.411 -8,-1.718 -13.234,-3.39 -15.695,-5.027 -3.758,-2.66 -5.633,-6.043 -5.633,-10.141 0,-4.05 1.504,-7.531 4.512,-10.472 3.008,-2.938 6.836,-4.41 11.484,-4.41 5.196,0 10.145,1.711 14.871,5.132 3.477,2.598 5.774,5.77 6.868,9.528 0.75,2.461 1.121,7.152 1.121,14.062 z m -38.555,23.378 -26.141,4.711 c 2.938,10.532 7.997,18.321 15.176,23.379 7.176,5.063 17.84,7.594 31.992,7.594 12.852,0 22.421,-1.523 28.711,-4.562 6.29,-3.051 10.71,-6.899 13.28,-11.59 2.56,-4.68 3.84,-13.27 3.84,-25.789 l -0.3,-33.641 c 0,-9.57 0.45,-16.621 1.38,-21.168 0.92,-4.543 2.65,-9.41 5.18,-14.613 h -28.51 c -0.75,1.922 -1.68,4.75 -2.77,8.519 -0.48,1.703 -0.822,2.832 -1.018,3.383 -4.922,-4.789 -10.195,-8.383 -15.8,-10.762 -5.606,-2.398 -11.582,-3.597 -17.938,-3.597 -11.211,0 -20.051,3.039 -26.504,9.117 -6.465,6.09 -9.699,13.781 -9.699,23.082 0,6.148 1.477,11.641 4.414,16.449 2.941,4.828 7.063,8.52 12.355,11.078 5.301,2.571 12.938,4.801 22.918,6.723 13.469,2.527 22.793,4.879 27.989,7.07 v 2.867 c 0,5.551 -1.367,9.493 -4.102,11.84 -2.734,2.371 -7.89,3.551 -15.476,3.551 -5.129,0 -9.133,-1.019 -12.004,-3.027 -2.871,-2.024 -5.196,-5.551 -6.973,-10.614"
         style="fill:#ffffff;fill-opacity:1;fill-rule:nonzero;stroke:none"
         id="path20" />
      <path
         d="m 1153.14,471.969 h -28.81 v 55.582 c 0,11.758 -0.61,19.359 -1.84,22.808 -1.24,3.461 -3.24,6.129 -6,8.063 -2.77,1.898 -6.1,2.867 -10,2.867 -4.99,0 -9.47,-1.379 -13.43,-4.098 -3.97,-2.75 -6.69,-6.371 -8.15,-10.882 -1.48,-4.508 -2.21,-12.848 -2.21,-25.02 v -49.32 h -28.82 v 108.902 h 26.77 v -16 c 9.5,12.309 21.46,18.461 35.89,18.461 6.36,0 12.17,-1.141 17.43,-3.441 5.26,-2.282 9.25,-5.211 11.94,-8.762 2.71,-3.559 4.58,-7.59 5.65,-12.109 1.05,-4.508 1.58,-10.961 1.58,-19.372 v -67.679"
         style="fill:#ffffff;fill-opacity:1;fill-rule:nonzero;stroke:none"
         id="path22" />
      <path
         d="m 1277.32,548.672 -28.4,-5.133 c -0.96,5.68 -3.12,9.961 -6.51,12.832 -3.38,2.867 -7.78,4.289 -13.18,4.289 -7.17,0 -12.9,-2.469 -17.17,-7.43 -4.27,-4.949 -6.41,-13.242 -6.41,-24.859 0,-12.922 2.17,-22.043 6.51,-27.371 4.34,-5.34 10.17,-8.012 17.48,-8.012 5.47,0 9.94,1.563 13.44,4.672 3.48,3.11 5.94,8.449 7.38,16.051 l 28.3,-4.82 c -2.94,-12.993 -8.58,-22.809 -16.92,-29.442 -8.34,-6.629 -19.52,-9.937 -33.52,-9.937 -15.94,0 -28.64,5.019 -38.1,15.078 -9.47,10.039 -14.21,23.949 -14.21,41.73 0,17.981 4.76,31.969 14.26,41.989 9.5,10.011 22.35,15.023 38.55,15.023 13.26,0 23.81,-2.852 31.63,-8.562 7.84,-5.711 13.45,-14.411 16.87,-26.098"
         style="fill:#ffffff;fill-opacity:1;fill-rule:nonzero;stroke:none"
         id="path24" />
      <path
         d="m 1299.17,471.969 v 108.902 h 28.81 V 471.969 Z m 0,123.66 v 26.66 h 28.81 v -26.66 h -28.81"
         style="fill:#ffffff;fill-opacity:1;fill-rule:nonzero;stroke:none"
         id="path26" />
      <path
         d="m 1385.09,471.969 h -28.81 v 108.902 h 26.76 v -15.48 c 4.58,7.308 8.7,12.129 12.36,14.449 3.66,2.332 7.81,3.492 12.46,3.492 6.56,0 12.88,-1.82 18.97,-5.441 l -8.92,-25.121 c -4.86,3.152 -9.37,4.718 -13.54,4.718 -4.03,0 -7.45,-1.109 -10.25,-3.328 -2.81,-2.23 -5.01,-6.238 -6.62,-12.051 -1.61,-5.808 -2.41,-17.98 -2.41,-36.5 v -33.64"
         style="fill:#ffffff;fill-opacity:1;fill-rule:nonzero;stroke:none"
         id="path28" />
      <path
         d="m 1499.31,524.27 c -3.69,-1.231 -9.53,-2.711 -17.53,-4.411 -8,-1.718 -13.23,-3.39 -15.69,-5.027 -3.76,-2.66 -5.64,-6.043 -5.64,-10.141 0,-4.05 1.51,-7.531 4.52,-10.472 3,-2.938 6.83,-4.41 11.48,-4.41 5.2,0 10.15,1.711 14.87,5.132 3.48,2.598 5.77,5.77 6.87,9.528 0.75,2.461 1.12,7.152 1.12,14.062 z m -38.55,23.378 -26.15,4.711 c 2.94,10.532 8,18.321 15.18,23.379 7.18,5.063 17.84,7.594 31.99,7.594 12.85,0 22.42,-1.523 28.71,-4.562 6.29,-3.051 10.72,-6.899 13.28,-11.59 2.56,-4.68 3.84,-13.27 3.84,-25.789 l -0.3,-33.641 c 0,-9.57 0.46,-16.621 1.39,-21.168 0.91,-4.543 2.64,-9.41 5.17,-14.613 h -28.5 c -0.76,1.922 -1.68,4.75 -2.78,8.519 -0.48,1.703 -0.82,2.832 -1.01,3.383 -4.92,-4.789 -10.2,-8.383 -15.8,-10.762 -5.61,-2.398 -11.59,-3.597 -17.94,-3.597 -11.21,0 -20.05,3.039 -26.51,9.117 -6.46,6.09 -9.69,13.781 -9.69,23.082 0,6.148 1.47,11.641 4.41,16.449 2.94,4.828 7.06,8.52 12.35,11.078 5.31,2.571 12.94,4.801 22.92,6.723 13.47,2.527 22.8,4.879 27.99,7.07 v 2.867 c 0,5.551 -1.37,9.493 -4.1,11.84 -2.73,2.371 -7.89,3.551 -15.48,3.551 -5.13,0 -9.13,-1.019 -12,-3.027 -2.87,-2.024 -5.2,-5.551 -6.97,-10.614"
         style="fill:#ffffff;fill-opacity:1;fill-rule:nonzero;stroke:none"
         id="path30" />
      <path
         d="m 371.645,219.969 v 150.32 h 111.464 v -25.43 h -81.113 v -33.328 h 75.469 v -25.32 h -75.469 v -40.91 H 485.98 V 219.969 H 371.645"
         style="fill:#ffffff;fill-opacity:1;fill-rule:nonzero;stroke:none"
         id="path32" />
      <path
         d="m 541.449,219.969 -43.886,108.902 h 30.253 l 20.508,-55.582 5.949,-18.551 c 1.571,4.703 2.559,7.821 2.969,9.321 0.957,3.082 1.981,6.152 3.074,9.23 l 20.715,55.582 h 29.637 l -43.27,-108.902 h -25.949"
         style="fill:#ffffff;fill-opacity:1;fill-rule:nonzero;stroke:none"
         id="path34" />
      <path
         d="m 655.883,219.969 h -28.809 v 108.902 h 26.758 v -15.48 c 4.582,7.3 8.703,12.129 12.356,14.449 3.66,2.332 7.812,3.488 12.46,3.488 6.563,0 12.891,-1.816 18.973,-5.437 l -8.926,-25.121 c -4.851,3.152 -9.363,4.718 -13.535,4.718 -4.031,0 -7.449,-1.117 -10.254,-3.328 -2.801,-2.23 -5.008,-6.238 -6.609,-12.051 -1.613,-5.808 -2.414,-17.98 -2.414,-36.507 v -33.633"
         style="fill:#ffffff;fill-opacity:1;fill-rule:nonzero;stroke:none"
         id="path36" />
      <path
         d="m 732.895,274.422 c 0,-10.813 2.558,-19.082 7.687,-24.82 5.125,-5.743 11.453,-8.614 18.973,-8.614 7.519,0 13.82,2.871 18.918,8.614 5.086,5.738 7.636,14.078 7.636,25.019 0,10.66 -2.55,18.867 -7.636,24.609 -5.098,5.739 -11.399,8.61 -18.918,8.61 -7.52,0 -13.848,-2.871 -18.973,-8.61 -5.129,-5.742 -7.687,-14.019 -7.687,-24.808 z m -29.532,1.539 c 0,9.57 2.356,18.828 7.071,27.777 4.718,8.961 11.398,15.801 20.05,20.512 8.641,4.719 18.301,7.078 28.965,7.078 16.473,0 29.981,-5.348 40.508,-16.047 10.527,-10.699 15.789,-24.222 15.789,-40.551 0,-16.48 -5.312,-30.128 -15.945,-40.968 -10.637,-10.832 -24.016,-16.25 -40.149,-16.25 -9.98,0 -19.5,2.258 -28.554,6.769 -9.063,4.508 -15.946,11.117 -20.664,19.84 -4.715,8.711 -7.071,19.328 -7.071,31.84"
         style="fill:#ffffff;fill-opacity:1;fill-rule:nonzero;stroke:none"
         id="path38" />
      <path
         d="m 865.992,276.262 c 0,-12.242 2.43,-21.274 7.285,-27.121 4.852,-5.84 10.762,-8.762 17.735,-8.762 6.699,0 12.273,2.68 16.718,8.051 4.442,5.359 6.661,14.16 6.661,26.402 0,11.406 -2.286,19.887 -6.868,25.43 -4.578,5.527 -10.253,8.297 -17.019,8.297 -7.043,0 -12.891,-2.707 -17.539,-8.149 -4.649,-5.43 -6.973,-13.488 -6.973,-24.148 z m -28.496,52.609 h 26.856 v -16 c 3.496,5.469 8.203,9.91 14.16,13.328 5.937,3.422 12.539,5.129 19.785,5.129 12.644,0 23.379,-4.957 32.195,-14.867 8.821,-9.922 13.235,-23.731 13.235,-41.43 0,-18.179 -4.454,-32.32 -13.34,-42.39 -8.887,-10.09 -19.649,-15.129 -32.297,-15.129 -6.016,0 -11.465,1.199 -16.356,3.59 -4.882,2.386 -10.031,6.488 -15.429,12.308 v -54.871 h -28.809 v 150.332"
         style="fill:#ffffff;fill-opacity:1;fill-rule:nonzero;stroke:none"
         id="path40" />
      <path
         d="m 956.43,251.039 28.918,4.41 c 1.23,-5.609 3.718,-9.859 7.488,-12.758 3.75,-2.91 9.024,-4.359 15.784,-4.359 7.45,0 13.05,1.359 16.81,4.098 2.53,1.91 3.8,4.468 3.8,7.691 0,2.18 -0.68,3.988 -2.05,5.438 -1.43,1.351 -4.65,2.621 -9.64,3.793 -23.239,5.117 -37.974,9.796 -44.196,14.039 -8.614,5.879 -12.91,14.05 -12.91,24.507 0,9.434 3.722,17.364 11.171,23.793 7.454,6.43 19.004,9.637 34.655,9.637 14.91,0 25.98,-2.43 33.23,-7.277 7.24,-4.86 12.23,-12.039 14.97,-21.539 l -27.17,-5.024 c -1.17,4.242 -3.37,7.481 -6.62,9.75 -3.24,2.242 -7.88,3.383 -13.89,3.383 -7.596,0 -13.026,-1.07 -16.307,-3.191 -2.188,-1.5 -3.282,-3.45 -3.282,-5.84 0,-2.051 0.957,-3.789 2.872,-5.231 2.597,-1.918 11.577,-4.609 26.917,-8.097 15.35,-3.481 26.06,-7.762 32.15,-12.821 6.01,-5.121 9.02,-12.269 9.02,-21.429 0,-9.981 -4.17,-18.551 -12.51,-25.742 -8.34,-7.168 -20.68,-10.758 -37.02,-10.758 -14.835,0 -26.573,3.008 -35.218,9.019 -8.652,6.02 -14.304,14.18 -16.972,24.508"
         style="fill:#ffffff;fill-opacity:1;fill-rule:nonzero;stroke:none"
         id="path42" />
      <path
         d="m 1082.34,219.969 v 150.32 h 28.82 V 290.52 l 33.74,38.351 h 35.47 l -37.22,-39.789 39.89,-69.113 h -31.07 l -27.39,48.91 -13.42,-14.047 v -34.863 h -28.82"
         style="fill:#ffffff;fill-opacity:1;fill-rule:nonzero;stroke:none"
         id="path44" />
      <path
         d="m 1260.25,272.27 c -3.69,-1.231 -9.53,-2.711 -17.53,-4.411 -8,-1.718 -13.23,-3.39 -15.69,-5.027 -3.76,-2.66 -5.64,-6.043 -5.64,-10.141 0,-4.05 1.51,-7.531 4.51,-10.472 3.01,-2.938 6.84,-4.41 11.49,-4.41 5.19,0 10.14,1.711 14.87,5.132 3.48,2.598 5.77,5.77 6.87,9.528 0.75,2.461 1.12,7.152 1.12,14.051 z m -38.56,23.371 -26.14,4.718 c 2.94,10.532 8,18.321 15.18,23.379 7.18,5.063 17.84,7.59 31.99,7.59 12.85,0 22.42,-1.527 28.71,-4.558 6.29,-3.051 10.71,-6.911 13.28,-11.59 2.56,-4.68 3.84,-13.282 3.84,-25.801 l -0.3,-33.629 c 0,-9.57 0.46,-16.621 1.38,-21.168 0.92,-4.543 2.65,-9.41 5.18,-14.613 h -28.51 c -0.75,1.91 -1.68,4.75 -2.77,8.519 -0.48,1.703 -0.82,2.832 -1.02,3.383 -4.92,-4.789 -10.19,-8.383 -15.8,-10.769 -5.6,-2.391 -11.58,-3.59 -17.94,-3.59 -11.21,0 -20.04,3.039 -26.5,9.117 -6.46,6.082 -9.7,13.781 -9.7,23.082 0,6.148 1.48,11.641 4.42,16.449 2.94,4.828 7.06,8.52 12.35,11.078 5.3,2.563 12.94,4.801 22.92,6.723 13.47,2.519 22.79,4.879 27.99,7.07 v 2.867 c 0,5.543 -1.37,9.493 -4.1,11.84 -2.74,2.371 -7.89,3.551 -15.48,3.551 -5.13,0 -9.13,-1.019 -12,-3.027 -2.87,-2.024 -5.2,-5.563 -6.98,-10.621"
         style="fill:#ffffff;fill-opacity:1;fill-rule:nonzero;stroke:none"
         id="path46" />
      <path
         d="m 1446.98,219.969 v 16.312 c -3.97,-5.82 -9.18,-10.402 -15.64,-13.75 -6.46,-3.34 -13.28,-5.019 -20.46,-5.019 -7.31,0 -13.87,1.609 -19.68,4.82 -5.81,3.207 -10.02,7.719 -12.61,13.539 -2.61,5.801 -3.91,13.84 -3.91,24.09 v 68.91 h 28.82 v -50.043 c 0,-15.308 0.53,-24.699 1.59,-28.148 1.06,-3.45 2.99,-6.192 5.79,-8.2 2.81,-2.019 6.36,-3.031 10.67,-3.031 4.92,0 9.32,1.352 13.23,4.063 3.89,2.687 6.56,6.039 7.99,10.039 1.44,4 2.16,13.789 2.16,29.379 v 45.941 h 28.82 V 219.969 h -26.77"
         style="fill:#ffffff;fill-opacity:1;fill-rule:nonzero;stroke:none"
         id="path48" />
      <path
         d="m 1602.63,219.969 h -28.81 v 55.582 c 0,11.75 -0.61,19.359 -1.84,22.808 -1.23,3.461 -3.23,6.129 -6,8.063 -2.77,1.898 -6.1,2.867 -10,2.867 -4.99,0 -9.47,-1.379 -13.43,-4.098 -3.97,-2.75 -6.69,-6.371 -8.15,-10.882 -1.48,-4.52 -2.21,-12.848 -2.21,-25.02 v -49.32 h -28.82 v 108.902 h 26.77 v -16 c 9.5,12.309 21.47,18.457 35.89,18.457 6.36,0 12.17,-1.137 17.43,-3.437 5.27,-2.282 9.25,-5.211 11.95,-8.762 2.7,-3.559 4.58,-7.598 5.64,-12.109 1.05,-4.508 1.58,-10.969 1.58,-19.372 v -67.679"
         style="fill:#ffffff;fill-opacity:1;fill-rule:nonzero;stroke:none"
         id="path50" />
      <path
         d="m 1631.86,219.969 v 108.902 h 28.81 V 219.969 Z m 0,123.66 v 26.66 h 28.81 v -26.66 h -28.81"
         style="fill:#ffffff;fill-opacity:1;fill-rule:nonzero;stroke:none"
         id="path52" />
      <path
         d="m 1689.58,343.629 v 26.66 h 28.82 v -26.66 z m 28.82,-14.758 V 223.352 c 0,-13.872 -0.9,-23.661 -2.71,-29.383 -1.82,-5.699 -5.3,-10.16 -10.46,-13.367 -5.17,-3.223 -11.74,-4.832 -19.75,-4.832 -2.87,0 -5.95,0.269 -9.27,0.769 -3.31,0.52 -6.89,1.281 -10.72,2.32 l 5.03,24.61 c 1.37,-0.278 2.65,-0.5 3.84,-0.68 1.2,-0.16 2.31,-0.25 3.33,-0.25 2.94,0 5.35,0.633 7.24,1.891 1.87,1.269 3.12,2.8 3.74,4.558 0.61,1.793 0.91,7.121 0.91,16 v 103.883 h 28.82"
         style="fill:#ffffff;fill-opacity:1;fill-rule:nonzero;stroke:none"
         id="path54" />
      <path
         d="m 1808.63,272.27 c -3.69,-1.231 -9.53,-2.711 -17.53,-4.411 -8,-1.718 -13.23,-3.39 -15.69,-5.027 -3.76,-2.66 -5.64,-6.043 -5.64,-10.141 0,-4.05 1.5,-7.531 4.51,-10.472 3.01,-2.938 6.84,-4.41 11.49,-4.41 5.19,0 10.14,1.711 14.87,5.132 3.48,2.598 5.77,5.77 6.86,9.528 0.76,2.461 1.13,7.152 1.13,14.051 z m -38.56,23.371 -26.14,4.718 c 2.94,10.532 8,18.321 15.18,23.379 7.17,5.063 17.84,7.59 31.99,7.59 12.85,0 22.42,-1.527 28.71,-4.558 6.29,-3.051 10.71,-6.911 13.28,-11.59 2.56,-4.68 3.84,-13.282 3.84,-25.801 l -0.3,-33.629 c 0,-9.57 0.45,-16.621 1.38,-21.168 0.92,-4.543 2.65,-9.41 5.18,-14.613 h -28.51 c -0.75,1.91 -1.68,4.75 -2.77,8.519 -0.48,1.703 -0.82,2.832 -1.02,3.383 -4.92,-4.789 -10.19,-8.383 -15.8,-10.769 -5.6,-2.391 -11.58,-3.59 -17.94,-3.59 -11.21,0 -20.05,3.039 -26.5,9.117 -6.47,6.082 -9.7,13.781 -9.7,23.082 0,6.148 1.48,11.641 4.42,16.449 2.94,4.828 7.06,8.52 12.35,11.078 5.3,2.563 12.94,4.801 22.92,6.723 13.47,2.519 22.79,4.879 27.99,7.07 v 2.867 c 0,5.543 -1.37,9.493 -4.1,11.84 -2.74,2.371 -7.89,3.551 -15.48,3.551 -5.13,0 -9.13,-1.019 -12,-3.027 -2.88,-2.024 -5.2,-5.563 -6.98,-10.621"
         style="fill:#ffffff;fill-opacity:1;fill-rule:nonzero;stroke:none"
         id="path56" />
    </g>
  </g>
</svg>
